<svg width="54" height="53" viewBox="0 0 54 53" fill="none" xmlns="http://www.w3.org/2000/svg">
<g clip-path="url(#clip0_46_7)">
<path d="M21.6358 34.0746V18.6903L35.3547 26.3825L21.6358 34.0746Z" fill="white"/>
<path d="M52.1816 14.0441C51.8813 12.9604 51.2934 11.9724 50.4765 11.1789C49.6597 10.3853 48.6427 9.81413 47.5272 9.52245C43.4193 8.44238 26.9123 8.44238 26.9123 8.44238C26.9123 8.44238 10.4053 8.44238 6.29735 9.52245C5.18188 9.81413 4.16484 10.3853 3.34801 11.1789C2.53119 11.9724 1.94322 12.9604 1.64298 14.0441C0.875939 18.114 0.503716 22.2449 0.531203 26.3825C0.503716 30.52 0.875939 34.6509 1.64298 38.7209C1.94322 39.8045 2.53119 40.7926 3.34801 41.5861C4.16484 42.3796 5.18188 42.9508 6.29735 43.2425C10.4053 44.3226 26.9123 44.3226 26.9123 44.3226C26.9123 44.3226 43.4193 44.3226 47.5272 43.2425C48.6427 42.9508 49.6597 42.3796 50.4765 41.5861C51.2934 40.7926 51.8813 39.8045 52.1816 38.7209C52.9486 34.6509 53.3208 30.52 53.2933 26.3825C53.3208 22.2449 52.9486 18.114 52.1816 14.0441ZM21.6361 34.0711V18.6939L35.3354 26.3825L21.6361 34.0711Z" fill="#292929"/>
</g>
<defs>
<clipPath id="clip0_46_7">
<rect width="52.765" height="52.765" fill="white" transform="translate(0.529785)"/>
</clipPath>
</defs>
</svg>
