<svg width="54" height="37" viewBox="0 0 54 37" fill="none" xmlns="http://www.w3.org/2000/svg">
<path d="M21.6358 26.0746V10.6903L35.3547 18.3825L21.6358 26.0746Z" fill="white"/>
<path d="M52.1816 6.04409C51.8813 4.96043 51.2934 3.97239 50.4765 3.17886C49.6597 2.38533 48.6427 1.81413 47.5272 1.52245C43.4193 0.442383 26.9123 0.442383 26.9123 0.442383C26.9123 0.442383 10.4053 0.442383 6.29735 1.52245C5.18188 1.81413 4.16484 2.38533 3.34801 3.17886C2.53119 3.97239 1.94322 4.96043 1.64298 6.04409C0.875939 10.114 0.503716 14.2449 0.531203 18.3825C0.503716 22.52 0.875939 26.6509 1.64298 30.7209C1.94322 31.8045 2.53119 32.7926 3.34801 33.5861C4.16484 34.3796 5.18188 34.9508 6.29735 35.2425C10.4053 36.3226 26.9123 36.3226 26.9123 36.3226C26.9123 36.3226 43.4193 36.3226 47.5272 35.2425C48.6427 34.9508 49.6597 34.3796 50.4765 33.5861C51.2934 32.7926 51.8813 31.8045 52.1816 30.7209C52.9486 26.6509 53.3208 22.52 53.2933 18.3825C53.3208 14.2449 52.9486 10.114 52.1816 6.04409ZM21.6361 26.0711V10.6939L35.3354 18.3825L21.6361 26.0711Z" fill="#292929"/>
</svg>
